<svg height="479pt" viewBox="0 -75 479.9181 479" width="479pt" xmlns="http://www.w3.org/2000/svg"><path d="m135.984375 240.460938 61.519531-42.480469-53.519531-53.519531zm0 0" fill="#78b9eb"/><path d="m479.585938 5.898438c-.082032 0 0-.078126-.082032-.078126-.078125 0-.078125-.160156-.160156-.242187-.136719-.472656-.324219-.925781-.558594-1.359375-.191406-.257812-.40625-.5-.640625-.71875-.078125-.160156-.238281-.320312-.320312-.480469-.628907-.644531-1.359375-1.1875-2.160157-1.601562-.078124-.078125-.078124-.078125-.160156-.078125-.742187-.398438-1.558594-.640625-2.398437-.722656-.175781-.070313-.371094-.097657-.558594-.078126-.160156 0-.402344-.078124-.5625-.078124h-464c-3.238281-.015626-6.15625 1.953124-7.359375 4.957031-1.253906 2.980469-.5898438 6.421875 1.679688 8.722656l102.242187 102.238281 23.597656 125.519532c.648438 3.984374 4.214844 6.824218 8.242188 6.5625 1.472656-.128907 2.882812-.65625 4.078125-1.523438l.082031.082031 56-38.640625 117.757813 117.761719c1.515624 1.492187 3.554687 2.324219 5.679687 2.320313 3.085937.089843 5.921875-1.675782 7.199219-4.480469l152-312c0-.082031 0-.082031.082031-.160157.019531-.136718.046875-.269531.078125-.402343.308594-.710938.5-1.464844.5625-2.238281v-.640626c.050781-.890624-.058594-1.785156-.320312-2.640624zm-334.242188 218.320312 5.203125-61.917969 34.480469 34.558594zm310.242188-200.320312-137.839844 282.960937-159.679688-159.601563zm-314.640626 113.199218c-2.804687 1.105469-4.730468 3.714844-4.960937 6.722656l-3.039063 36.957032-11.761718-62.636719 215.683594-62.320313zm-26.640624-33.597656-87.039063-87.039062h388.160156zm0 0" fill="#1a6fb0"/></svg>