<?xml version="1.0" encoding="UTF-8" standalone="no"?>
<svg
   xmlns:dc="http://purl.org/dc/elements/1.1/"
   xmlns:cc="http://creativecommons.org/ns#"
   xmlns:rdf="http://www.w3.org/1999/02/22-rdf-syntax-ns#"
   xmlns:svg="http://www.w3.org/2000/svg"
   xmlns="http://www.w3.org/2000/svg"
   xmlns:sodipodi="http://sodipodi.sourceforge.net/DTD/sodipodi-0.dtd"
   xmlns:inkscape="http://www.inkscape.org/namespaces/inkscape"
   inkscape:version="1.0 (4035a4fb49, 2020-05-01)"
   height="70.400002"
   width="600"
   sodipodi:docname="freecodecamp-logo.svg"
   viewBox="0 0 600 70.400002"
   id="layer"
   version="1.1">
  <metadata
     id="metadata127">
    <rdf:RDF>
      <cc:Work
         rdf:about="">
        <dc:format>image/svg+xml</dc:format>
        <dc:type
           rdf:resource="http://purl.org/dc/dcmitype/StillImage" />
      </cc:Work>
    </rdf:RDF>
  </metadata>
  <defs
     id="defs125" />
  <sodipodi:namedview
     inkscape:current-layer="layer"
     inkscape:window-maximized="0"
     inkscape:window-y="34"
     inkscape:window-x="0"
     inkscape:cy="-282.34049"
     inkscape:cx="221.12735"
     inkscape:zoom="1.1242331"
     showgrid="false"
     id="namedview123"
     inkscape:window-height="956"
     inkscape:window-width="1656"
     inkscape:pageshadow="2"
     inkscape:pageopacity="0"
     guidetolerance="10"
     gridtolerance="10"
     objecttolerance="10"
     borderopacity="1"
     bordercolor="#666666"
     pagecolor="#ffffff" />
  <style
     id="style104"
     style="display:block"
     type="text/css">
	.st0{fill:#006400;}
</style>
  <path
     sodipodi:insensitive="true"
     d="M 8,21.9 H 2.8 C 1,21.9 0,21.1 0,19.5 0,17.9 0.9,17.1 2.8,17.1 H 8 V 12.4 C 8,4.3 12.1,0.3 20.2,0.3 c 3.3,0 6.1,0.7 8.3,1.9 2.8,1.7 4.2,4.3 4.2,7.4 0,2.1 -0.8,3 -2.4,3 -1.1,0 -1.9,-0.7 -2.5,-1.9 C 27.1,8.6 26.5,7.4 26.1,6.9 25.2,5.7 23.2,5 20.3,5 15.3,5 13,7.5 13,12.4 v 4.5 h 9.5 c 2.1,0 3.2,0.8 3.2,2.4 0,1.6 -1.1,2.4 -3.2,2.4 H 13 v 30.4 c 0,1.9 -0.8,2.8 -2.4,2.8 -1.6,0 -2.4,-1 -2.4,-2.8 V 21.8 H 8 Z"
     class="st0"
     id="path5_1_" />
  <path
     sodipodi:insensitive="true"
     d="M 50.6,49.7 V 22 h -7.1 c -1.9,0 -2.9,-0.8 -2.9,-2.4 0,-1.6 0.9,-2.4 2.9,-2.4 h 9.4 c 1.6,0 2.5,1.5 2.5,4.1 2.9,-3.2 6.1,-4.9 9.3,-4.9 2.8,0 4.8,0.8 6.4,2.5 1.6,1.7 2.4,4 2.4,6.6 0,1.9 -0.8,2.8 -2.4,2.8 -0.9,0 -1.6,-0.7 -1.9,-1.9 -0.7,-2.2 -1.1,-3.4 -1.2,-3.6 -0.7,-1.2 -1.9,-1.9 -3.7,-1.9 -1.8,0 -3.6,0.7 -5.1,2 -0.9,0.7 -2.2,2.1 -3.9,4.3 v 22.1 h 8.9 c 1.9,0 2.9,0.8 2.9,2.2 0,1.6 -0.9,2.5 -2.9,2.5 H 43.4 c -1.9,0 -2.9,-0.8 -2.9,-2.4 0,-1.6 0.9,-2.4 2.9,-2.4 h 7.2 z"
     class="st0"
     id="path7_1_" />
  <path
     sodipodi:insensitive="true"
     d="m 86.4,36.6 v 5.3 c 0,5.7 3.9,8.5 11.9,8.5 2.9,0 5.2,-0.3 7.1,-1 0.9,-0.3 2.6,-1.2 4.8,-2.8 1.4,-1.3 2.5,-2 2.9,-2 1.3,0 1.9,0.7 1.9,2.1 0,1.4 -0.9,2.9 -2.9,4.5 -3.2,2.5 -7.9,3.8 -14.2,3.8 -11,0 -16.5,-4.4 -16.5,-13.1 V 28.7 c 0,-3 1.2,-5.7 3.4,-7.8 3,-2.9 7.5,-4.3 13.5,-4.3 10.8,0 16.1,5.4 16.1,16.2 0,2.6 -1.1,4 -3,4 H 86.3 Z m 0,-4.7 h 23.5 c 0,-7.2 -3.9,-10.7 -11.9,-10.7 -2.9,0 -5.5,0.7 -7.9,2 -2.4,1.7 -3.7,3.7 -3.7,5.9 z"
     class="st0"
     id="path9_1_" />
  <path
     sodipodi:insensitive="true"
     d="m 127.5,36.6 v 5.3 c 0,5.7 3.9,8.5 11.9,8.5 2.9,0 5.2,-0.3 7.1,-1 0.9,-0.3 2.6,-1.2 4.8,-2.8 1.4,-1.3 2.5,-2 2.9,-2 1.3,0 1.9,0.7 1.9,2.1 0,1.4 -0.9,2.9 -2.9,4.5 C 150,53.7 145.3,55 139,55 128,55 122.5,50.6 122.5,41.9 V 28.7 c 0,-3 1.2,-5.7 3.4,-7.8 3,-2.9 7.5,-4.3 13.5,-4.3 10.8,0 16.1,5.4 16.1,16.2 0,2.6 -1.1,4 -3,4 h -25.1 z m 0,-4.7 H 151 c 0,-7.2 -3.9,-10.7 -11.9,-10.7 -2.9,0 -5.5,0.7 -7.9,2 -2.5,1.7 -3.7,3.7 -3.7,5.9 z"
     class="st0"
     id="path11_1_" />
  <path
     sodipodi:insensitive="true"
     d="M 164.4,39.7 V 19 c 0,-10.9 5.7,-16.2 17,-16.2 4.6,0 8.3,1.1 11.2,3 3.3,2.5 4.8,5.9 4.8,10.2 0,2 -0.8,3 -2.5,3 -1.2,0 -1.9,-1 -2.5,-2.9 -0.3,-1.6 -0.9,-3.2 -1.8,-4.7 -1.4,-2.6 -4.6,-3.8 -9.5,-3.8 -4.2,0 -7.2,1.1 -9,3.2 -1.7,2 -2.6,5.1 -2.6,9.4 v 17.2 c 0,4.5 0.9,7.7 2.8,9.7 1.9,2.1 5,3.3 9.2,3.3 6.4,0 10.1,-2.2 11,-6.7 0.4,-1.7 0.5,-2.5 0.5,-2.6 0.4,-1 1.1,-1.5 1.9,-1.5 1.6,0 2.5,1.1 2.5,3 0,4.1 -1.7,7.3 -5.1,9.8 -2.8,1.9 -6.3,2.8 -10.8,2.8 -5.2,0 -9.3,-1.2 -12.3,-3.7 -3.3,-2.6 -4.8,-6.6 -4.8,-11.8 z"
     class="st0"
     id="path13_1_" />
  <path
     sodipodi:insensitive="true"
     d="M 205,42.6 V 29 c 0,-8.4 5.5,-12.5 16.5,-12.5 11,0 16.5,4.1 16.5,12.5 v 13.6 c 0,8.4 -5.4,12.5 -16.3,12.5 -11.2,0 -16.7,-4.2 -16.7,-12.5 z m 28.2,0 V 29 c 0,-5.2 -3.9,-7.8 -11.9,-7.8 -7.6,0 -11.5,2.6 -11.5,7.8 v 13.6 c 0,5.2 3.9,7.8 11.8,7.7 7.8,0 11.6,-2.5 11.6,-7.7 z"
     class="st0"
     id="path15_9_" />
  <path
     sodipodi:insensitive="true"
     d="m 274.1,50.6 c -2.2,1.7 -4.2,2.8 -5.9,3.4 -1.8,0.7 -4.1,1.1 -6.7,1.1 -4.4,0 -8,-1 -10.8,-2.8 C 247.5,50.2 246,47 246,42.6 V 28.7 c 0,-4.1 1.6,-7.3 4.6,-9.4 2.6,-1.9 6.2,-2.8 10.4,-2.8 2.8,0 5.1,0.3 6.9,1 1.8,0.7 3.8,1.9 5.9,3.6 V 4 c 0,-2.2 0.8,-3.4 2.2,-3.4 1.6,0 2.5,1.2 2.5,3.4 v 48.7 c 0,1.7 -0.8,2.5 -2.2,2.5 -0.9,0 -1.6,-0.5 -1.8,-1.6 -0.3,-0.9 -0.4,-1.8 -0.4,-3 z M 273.8,45 V 25.9 c -2.4,-1.7 -4.2,-2.9 -5.7,-3.4 -1.9,-0.8 -4.1,-1.2 -6.4,-1.2 -3,0 -5.5,0.5 -7.3,1.7 -2.4,1.5 -3.6,3.6 -3.6,6.2 v 13.1 c 0,2.8 1.2,4.9 3.7,6.3 1.9,1.1 4.4,1.7 7.5,1.7 2.5,0 4.7,-0.4 6.6,-1.2 1.6,-0.9 3.3,-2.3 5.2,-4.1 z"
     class="st0"
     id="path17_1_" />
  <path
     sodipodi:insensitive="true"
     d="m 291.9,36.6 v 5.3 c 0,5.7 3.9,8.5 11.9,8.5 2.9,0 5.2,-0.3 7.1,-1 0.9,-0.3 2.6,-1.2 4.8,-2.8 1.4,-1.3 2.5,-2 2.9,-2 1.3,0 1.9,0.7 1.9,2.1 0,1.4 -0.9,2.9 -2.9,4.5 -3.2,2.5 -7.9,3.8 -14.2,3.8 -11,0 -16.5,-4.4 -16.5,-13.1 V 28.7 c 0,-3 1.2,-5.7 3.4,-7.8 3,-2.9 7.5,-4.3 13.5,-4.3 10.8,0 16.1,5.4 16.1,16.2 0,2.6 -1.1,4 -3,4 h -25.1 z m 0,-4.7 h 23.5 c 0,-7.2 -3.9,-10.7 -11.9,-10.7 -2.9,0 -5.5,0.7 -7.9,2 -2.5,1.7 -3.7,3.7 -3.7,5.9 z"
     class="st0"
     id="path19_1_" />
  <path
     sodipodi:insensitive="true"
     d="M 328.8,39.7 V 19 c 0,-10.9 5.7,-16.2 17,-16.2 4.6,0 8.3,1.1 11.2,3 3.3,2.5 4.8,5.9 4.8,10.2 0,2 -0.8,3 -2.5,3 -1.2,0 -1.9,-1 -2.5,-2.9 -0.3,-1.6 -0.9,-3.2 -1.8,-4.7 -1.4,-2.6 -4.6,-3.8 -9.5,-3.8 -4.2,0 -7.2,1.1 -9,3.2 -1.7,2 -2.6,5.1 -2.6,9.4 v 17.2 c 0,4.5 0.9,7.7 2.8,9.7 1.9,2.1 5,3.3 9.2,3.3 6.4,0 10.1,-2.2 11,-6.7 0.4,-1.7 0.5,-2.5 0.5,-2.6 0.4,-1 1.1,-1.5 1.9,-1.5 1.6,0 2.5,1.1 2.5,3 0,4.1 -1.7,7.3 -5.1,9.8 -2.8,1.9 -6.3,2.8 -10.8,2.8 -5.2,0 -9.3,-1.2 -12.3,-3.7 -3.2,-2.6 -4.8,-6.6 -4.8,-11.8 z"
     class="st0"
     id="path21_1_" />
  <path
     sodipodi:insensitive="true"
     d="m 395.9,50.6 c -2.4,1.7 -4.2,2.9 -5.5,3.4 -1.7,0.7 -3.8,1.1 -6.4,1.1 -3.9,0 -7.2,-0.8 -9.7,-2.5 -2.9,-2 -4.4,-4.9 -4.4,-8.8 0,-3.8 1.6,-6.9 4.6,-9 2.6,-2 6.1,-2.9 9.9,-2.9 3.3,0 6.9,0.8 11.2,2.2 v -5.8 c 0,-2.8 -1.3,-4.8 -3.9,-5.9 -1.8,-0.8 -4.1,-1.2 -6.7,-1.2 -6.2,0 -9.4,1.7 -10.1,5.2 -0.3,1.6 -0.5,2.4 -0.5,2.5 -0.4,0.8 -1.1,1.2 -1.9,1.2 -1.7,0 -2.6,-1 -2.6,-2.8 0,-2.5 0.9,-4.8 2.9,-6.9 2.4,-2.6 6.7,-4 12.7,-4 4.8,0 8.4,0.8 10.8,2.4 2.8,2 4.2,5.3 4.2,9.9 v 17 c 0,2 0.4,3.3 1.2,4 0.1,0.1 0.9,0.5 2.2,1.1 0.8,0.4 1.2,1.1 1.2,2.2 0,1.3 -0.7,2 -2.1,2 -0.4,0 -1.1,-0.1 -2.1,-0.5 -1.8,-0.7 -3,-1.1 -3.3,-1.2 -0.9,-0.5 -1.5,-1.4 -1.7,-2.7 z m -0.3,-5 v -7 c -3.7,-1.2 -7.2,-1.9 -10.4,-1.9 -7.1,0 -10.6,2.2 -10.6,6.9 0,2.4 1.1,4.3 3.2,5.3 1.7,1 3.8,1.5 6.4,1.5 2.2,0 4.3,-0.4 6.2,-1.3 1.4,-0.6 3.1,-1.9 5.2,-3.5 z"
     class="st0"
     id="path23_1_" />
  <path
     sodipodi:insensitive="true"
     d="m 414.2,20.5 c 1.2,-1.5 2.2,-2.5 3,-2.9 1.1,-0.7 2.4,-1.1 4.1,-1.1 2.6,0 4.8,1.3 6.8,4.1 1.3,-1.6 2.5,-2.6 3.6,-3.2 1.2,-0.7 2.8,-1 4.6,-1 5.7,0 8.5,2.8 8.5,8.4 v 26.9 c 0,2.2 -0.8,3.3 -2.5,3.3 -1.6,0 -2.4,-1.1 -2.4,-3.3 V 26.4 c 0,-3.4 -1.4,-5.3 -4.2,-5.3 -2.1,0 -4.2,1.3 -6.1,3.8 v 26.8 c 0,2.2 -0.8,3.3 -2.4,3.3 -1.6,0 -2.4,-1.1 -2.4,-3.3 V 26.9 c 0,-3.8 -1.6,-5.7 -4.6,-5.7 -1.9,0 -3.8,1.3 -5.8,3.8 v 26.7 c 0,2.2 -0.8,3.3 -2.5,3.3 -1.6,0 -2.4,-1.1 -2.4,-3.3 V 18.8 c 0,-1.6 0.7,-2.4 1.9,-2.4 0.7,0 1.3,0.5 1.7,1.5 0.9,0.7 1.1,1.7 1.1,2.6 z"
     class="st0"
     id="path25_1_" />
  <path
     sodipodi:insensitive="true"
     d="m 456.8,20.5 c 3.7,-2.6 8,-4 12.7,-4 9.9,0 14.9,4.3 14.9,12.6 v 13.8 c 0,4 -1.4,7 -4.2,9.3 -2.5,2 -5.9,3 -10.2,3 -5.1,0 -9.4,-1.3 -13.3,-4.1 v 15.7 c 0,2.4 -0.8,3.6 -2.4,3.6 -1.6,0 -2.4,-1.2 -2.4,-3.6 V 20.2 c 0,-2.4 0.7,-3.6 1.9,-3.6 0.7,0 1.3,0.5 1.8,1.5 0.6,0.6 1,1.6 1.2,2.4 z m 0,25.2 c 3.4,3 7.6,4.7 12.4,4.7 3,0 5.4,-0.5 7.2,-1.7 2.2,-1.3 3.3,-3.3 3.3,-5.8 V 29.1 c 0,-2.9 -1.2,-4.9 -3.6,-6.2 -1.8,-1 -4.3,-1.5 -7.3,-1.5 -2.8,0 -5,0.4 -6.7,1.2 -1.6,0.7 -3.3,2.1 -5.4,4.3 v 18.8 z"
     class="st0"
     id="path27_1_" />
  <path
     sodipodi:insensitive="true"
     d="m 500.7,32.5 c 0,-10.5 3.6,-19.8 10.8,-28 2.6,-3 4.7,-4.5 6.2,-4.5 0.5,0 1.1,0.1 1.4,0.5 0.3,0.4 0.7,0.8 0.7,1.3 0,0.8 -0.9,2 -2.8,3.8 -7.5,7.3 -11.3,16.3 -11.3,27.1 0,12 3.9,21.6 11.7,29 1.6,1.5 2.4,2.6 2.4,3.6 0,0.5 -0.3,1.1 -0.7,1.5 -0.4,0.4 -0.9,0.7 -1.4,0.7 -1.8,0 -4.3,-2.1 -7.6,-6.3 -6.4,-7.8 -9.4,-17.4 -9.4,-28.7 z"
     class="st0"
     id="path29_1_" />
  <path
     sodipodi:insensitive="true"
     d="m 600,35.2 c 0,10.5 -3.6,19.8 -10.8,28 -2.6,3 -4.7,4.5 -6.2,4.5 -0.5,0 -1.1,-0.1 -1.4,-0.5 -0.4,-0.4 -0.7,-1 -0.7,-1.5 0,-0.8 0.9,-2 2.8,-3.7 7.5,-7.3 11.3,-16.3 11.3,-27.1 0,-12 -3.9,-21.6 -11.7,-29 -1.6,-1.5 -2.4,-2.6 -2.4,-3.6 0,-0.5 0.3,-1.1 0.7,-1.5 0.4,-0.4 0.9,-0.7 1.4,-0.7 1.7,0 4.3,2.1 7.6,6.3 6.2,8.1 9.4,17.7 9.4,28.8 z"
     class="st0"
     id="path31_1_" />
  <path
     sodipodi:insensitive="true"
     d="m 573,65.3 h -45.5 c -1.4,0 -2.8,-1.1 -2.8,-2.8 0,-1.5 1.1,-2.8 2.8,-2.8 h 45.4 c 1.4,0 2.8,1.1 2.8,2.8 0,1.7 -1.1,2.8 -2.7,2.8 z"
     class="st0"
     id="path37_1_" />
  <path
     sodipodi:insensitive="true"
     d="m 540.8,5.8 c 0,0 3.8,2.6 3.8,7.4 0,8.3 -11.1,17.5 -11.1,26 0,9.3 7,15.3 13.8,17.1 0.9,0.2 1.4,-0.9 0.2,-1.2 -2.7,-0.7 -5.8,-4.3 -5.8,-10 0,-5.3 5,-7.2 7,-9.8 2.1,-2.6 1.6,-5.9 0.4,-6.9 -1.2,-1 -0.4,-2.2 1.8,-0.7 2.2,1.5 4,4.4 3.3,7.1 -0.8,3.5 0.3,5.5 2.1,5.7 1.8,0.2 3.8,-0.7 3.6,-2.4 -0.2,-1.7 -1.2,-3.5 -0.6,-3.5 1.3,0 4,3.2 4,8.3 0,5.1 -4.2,8.6 -5.4,9.9 -0.8,0.8 0.2,1.9 1.3,1.3 0.5,-0.2 1.6,-0.9 2.3,-1.4 3.3,-2.4 8.4,-7.1 8.4,-16 0,-9.3 -3.5,-13.4 -7,-16.8 -3.5,-3.5 -4.4,-2.6 -3.4,-0.9 3,5.2 1.2,6.9 -1,6.9 -2.6,0 -2.7,-5.8 -3.7,-10.3 C 552.6,5.7 543.7,4 542,3.9 c -1.7,0 -3.2,1 -1.2,1.9 z"
     class="st0"
     id="Shape" />
</svg>
