<?xml version="1.0" encoding="UTF-8" standalone="no"?>
<svg
   xmlns:dc="http://purl.org/dc/elements/1.1/"
   xmlns:cc="http://creativecommons.org/ns#"
   xmlns:rdf="http://www.w3.org/1999/02/22-rdf-syntax-ns#"
   xmlns:svg="http://www.w3.org/2000/svg"
   xmlns="http://www.w3.org/2000/svg"
   xmlns:sodipodi="http://sodipodi.sourceforge.net/DTD/sodipodi-0.dtd"
   xmlns:inkscape="http://www.inkscape.org/namespaces/inkscape"
   inkscape:version="1.0 (4035a4fb49, 2020-05-01)"
   sodipodi:docname="previous.svg"
   xml:space="preserve"
   viewBox="0 0 408.759 408.759"
   y="0px"
   x="0px"
   id="Layer_1"
   version="1.1"><metadata
   id="metadata157"><rdf:RDF><cc:Work
       rdf:about=""><dc:format>image/svg+xml</dc:format><dc:type
         rdf:resource="http://purl.org/dc/dcmitype/StillImage" /><dc:title></dc:title></cc:Work></rdf:RDF></metadata><defs
   id="defs155" /><sodipodi:namedview
   inkscape:current-layer="Layer_1"
   inkscape:window-maximized="1"
   inkscape:window-y="34"
   inkscape:window-x="0"
   inkscape:cy="204.3795"
   inkscape:cx="204.3795"
   inkscape:zoom="1.7932327"
   showgrid="false"
   id="namedview153"
   inkscape:window-height="1142"
   inkscape:window-width="1920"
   inkscape:pageshadow="2"
   inkscape:pageopacity="0"
   guidetolerance="10"
   gridtolerance="10"
   objecttolerance="10"
   borderopacity="1"
   bordercolor="#666666"
   pagecolor="#ffffff" />
<g
   transform="matrix(-1,0,0,1,408.759,0)"
   id="g150">
	<path
   id="path138"
   d="M 204.383,408.759 C 146.262,408.759 90.709,383.891 51.966,340.532 18.46,303.057 0.005,254.703 0.005,204.379 0.005,91.683 91.688,0 204.383,0 c 50.319,0 98.674,18.453 136.164,51.964 43.346,38.761 68.207,94.315 68.207,152.415 10e-4,112.695 -91.68,204.38 -204.371,204.38"
   style="fill:#ffbe00" />
	<path
   id="path140"
   d="m 377.755,204.379 c 0,18.08 -2.77,35.52 -7.909,51.899 -3.61,11.551 -8.4,22.569 -14.23,32.931 -23.99,42.679 -65.511,74.179 -114.801,84.71 -6.229,1.33 -12.588,2.329 -19.05,2.969 -5.719,0.58 -11.51,0.87 -17.38,0.87 -51.39,0 -97.559,-22.361 -129.299,-57.881 -0.26,-0.29 -0.521,-0.589 -0.79,-0.879 -26.95,-30.56 -43.29,-70.681 -43.29,-114.62 0,-95.751 77.621,-173.381 173.379,-173.381 43.951,0 84.071,16.35 114.631,43.29 0.29,0.27 0.589,0.53 0.879,0.79 35.511,31.761 57.86,77.912 57.86,129.302" />
	<path
   id="path142"
   d="m 74.364,319.072 c 3.671,4.157 7.537,8.136 11.587,11.924 -3.784,-3.542 -7.41,-7.252 -10.864,-11.118 -0.239,-0.266 -0.478,-0.539 -0.723,-0.806 M 52.683,288.39 c 0.004,0.008 0.005,0.01 0.01,0.018 -0.004,-0.007 -0.007,-0.011 -0.01,-0.018 m -0.289,-0.522 c 0.013,0.024 0.028,0.05 0.041,0.074 -0.014,-0.024 -0.028,-0.05 -0.041,-0.074 m -0.445,-0.813 c 0.02,0.037 0.042,0.078 0.062,0.115 -0.02,-0.038 -0.042,-0.078 -0.062,-0.115 m -0.258,-0.477 c 0.022,0.04 0.044,0.082 0.066,0.122 -0.021,-0.039 -0.045,-0.082 -0.066,-0.122 M 51.434,286.1 c 0.049,0.091 0.097,0.181 0.146,0.272 -0.05,-0.092 -0.096,-0.179 -0.146,-0.272 m -0.198,-0.371 c 0.033,0.062 0.068,0.128 0.101,0.19 -0.035,-0.065 -0.067,-0.126 -0.101,-0.19 m -0.244,-0.46 c 0.04,0.075 0.082,0.156 0.122,0.231 -0.041,-0.078 -0.081,-0.153 -0.122,-0.231 m -0.243,-0.461 c 0.053,0.102 0.107,0.205 0.161,0.306 -0.053,-0.101 -0.107,-0.203 -0.161,-0.306 m -0.21,-0.402 c 0.045,0.086 0.09,0.173 0.135,0.259 -0.045,-0.087 -0.09,-0.173 -0.135,-0.259 m -0.228,-0.439 c 0.056,0.108 0.112,0.215 0.168,0.323 -0.056,-0.107 -0.113,-0.216 -0.168,-0.323 m -0.24,-0.465 c 0.06,0.116 0.116,0.226 0.176,0.342 -0.058,-0.113 -0.118,-0.228 -0.176,-0.342 m -0.203,-0.396 c 0.051,0.1 0.105,0.204 0.156,0.304 -0.053,-0.103 -0.103,-0.201 -0.156,-0.304 m -0.224,-0.44 c 0.06,0.119 0.119,0.234 0.18,0.353 -0.06,-0.118 -0.119,-0.234 -0.18,-0.353 m -0.233,-0.461 c 0.06,0.119 0.123,0.244 0.183,0.363 -0.06,-0.121 -0.122,-0.242 -0.183,-0.363 M 49.2,281.784 c 0.058,0.117 0.118,0.236 0.177,0.352 -0.059,-0.116 -0.118,-0.235 -0.177,-0.352 m -0.212,-0.427 c 0.063,0.128 0.126,0.254 0.19,0.382 -0.064,-0.128 -0.127,-0.254 -0.19,-0.382 m -0.231,-0.466 c 0.064,0.131 0.13,0.263 0.194,0.393 -0.065,-0.133 -0.128,-0.26 -0.194,-0.393 m -0.21,-0.429 c 0.068,0.139 0.137,0.28 0.205,0.419 -0.069,-0.14 -0.137,-0.279 -0.205,-0.419 m -0.207,-0.425 c 0.068,0.139 0.134,0.275 0.202,0.414 -0.069,-0.139 -0.134,-0.273 -0.202,-0.414 m -0.633,-1.316 c 0.203,0.428 0.41,0.857 0.616,1.283 -0.207,-0.427 -0.412,-0.853 -0.616,-1.283 M 152.31,38.954 C 81.994,61.062 31.004,126.759 31.004,204.37 c 0,26.605 5.991,51.812 16.698,74.34 C 36.995,256.182 31.006,230.98 31.006,204.379 31.006,126.768 81.994,61.065 152.31,38.954" />
	<path
   id="path144"
   d="m 204.383,30.999 c -18.142,0 -35.638,2.787 -52.073,7.955 -70.316,22.111 -121.304,87.814 -121.304,165.425 0,26.601 5.989,51.803 16.696,74.331 0.003,0.005 0.003,0.006 0.005,0.012 0.204,0.429 0.409,0.856 0.616,1.283 0.005,0.011 0.011,0.022 0.016,0.033 0.068,0.14 0.133,0.274 0.202,0.414 0.001,0.003 0.004,0.008 0.005,0.01 0.068,0.14 0.137,0.279 0.205,0.419 0.001,0.003 0.004,0.007 0.005,0.01 0.065,0.133 0.129,0.26 0.194,0.393 0.012,0.024 0.024,0.049 0.036,0.073 0.064,0.128 0.126,0.254 0.19,0.382 0.008,0.016 0.015,0.029 0.023,0.045 0.058,0.117 0.118,0.236 0.177,0.352 0.012,0.024 0.022,0.044 0.034,0.068 0.061,0.121 0.122,0.242 0.183,0.363 0.016,0.032 0.033,0.066 0.05,0.098 0.06,0.119 0.119,0.235 0.18,0.353 0.015,0.03 0.029,0.057 0.044,0.086 0.052,0.103 0.103,0.202 0.156,0.304 0.015,0.03 0.032,0.062 0.047,0.092 0.058,0.114 0.118,0.229 0.176,0.342 0.021,0.04 0.042,0.082 0.063,0.123 0.055,0.107 0.112,0.216 0.168,0.323 0.02,0.038 0.041,0.078 0.06,0.116 0.045,0.087 0.09,0.172 0.135,0.259 0.025,0.048 0.05,0.095 0.075,0.144 0.054,0.102 0.107,0.204 0.161,0.306 0.028,0.054 0.053,0.101 0.082,0.155 0.041,0.078 0.081,0.153 0.122,0.231 0.041,0.078 0.08,0.151 0.122,0.229 0.034,0.064 0.067,0.125 0.101,0.19 0.033,0.061 0.064,0.12 0.097,0.182 0.05,0.093 0.096,0.179 0.146,0.272 0.037,0.069 0.074,0.137 0.111,0.206 0.021,0.04 0.045,0.083 0.066,0.122 0.065,0.12 0.127,0.234 0.192,0.354 0.02,0.037 0.042,0.077 0.062,0.115 0.127,0.234 0.254,0.465 0.382,0.698 0.013,0.024 0.027,0.05 0.041,0.074 0.082,0.148 0.166,0.3 0.248,0.449 0.004,0.007 0.006,0.011 0.01,0.018 6.114,11.011 13.394,21.29 21.671,30.664 0.246,0.267 0.484,0.54 0.723,0.806 3.454,3.865 7.08,7.576 10.864,11.118 2.121,1.984 4.294,3.917 6.513,5.794 -25.53,-30.2 -40.919,-69.239 -40.919,-111.88 0,-95.751 77.619,-173.37 173.379,-173.37 42.631,0 81.68,15.39 111.87,40.919 -31.787,-37.59 -79.308,-61.46 -132.408,-61.46" />
	<path
   id="path146"
   d="m 264.724,198.306 -99.76,99.76 75.851,75.853 c 49.29,-10.531 90.811,-42.031 114.801,-84.71 l -84.549,-84.561" />
	<polyline
   id="polyline148"
   points="171.307,304.405 155.751,288.847 239.949,204.648 155.751,120.45 171.307,104.892    271.061,204.648 171.307,304.405  "
   style="fill:#ffffff" />
</g>

</svg>
